<svg viewBox="0 0 18 18" fill="none" xmlns="http://www.w3.org/2000/svg">
    <path d="M0 5.44854C0 3.99685 0.564557 2.63 1.59487 1.5978C2.62519 0.565592 3.98954 0 5.43857 0H18V2.7714H5.43857C4.72817 2.7714 4.06011 3.04948 3.55201 3.55852C3.0439 4.06755 2.76633 4.74155 2.76633 5.45325L2.74751 10.1052C2.62049 11.3401 1.68897 12.3346 0.489283 12.5184L0 12.5891V5.44854Z" fill="#F13E33"/>
    <path d="M0 17.9997V15.2283H12.5614C13.2718 15.2283 13.9446 14.9455 14.448 14.4411C14.9561 13.9321 15.2336 13.2628 15.2336 12.5511L15.2383 8.1395C15.2383 6.8245 16.2169 5.68389 17.5107 5.48594L18 5.41052V12.5511C18 14.0028 17.4307 15.3697 16.4051 16.4019C15.3748 17.4341 14.0104 17.9997 12.5614 17.9997H0Z" fill="#F13E33"/>
    <path d="M10.6371 12.5983V9.02097L8.99991 10.977L7.36269 9.02097V12.5983H5.19385V5.552H7.24978L8.99991 7.81908L10.7547 5.552H12.806V12.5983H10.6371Z" fill="#F13E33"/>
</svg>
