<svg width="175" height="34" viewBox="0 0 175 34" fill="none" xmlns="http://www.w3.org/2000/svg">
    <path fill-rule="evenodd" clip-rule="evenodd" d="M82.2334 20.1827H77.2822L79.7582 13.7324L82.2334 20.1827ZM83.9024 24.5287L85.007 27.411H90.4542L82.2628 6.85242H77.3376L69.1445 27.411H74.5074L75.6145 24.5287H83.9024ZM60.462 27.4127V15.1943L55.1446 21.648L49.8295 15.1943V27.4127H44.5039V6.85388H49.7566L55.1446 13.9229L60.5342 6.85388H65.7868V27.4127H60.462ZM93.8408 6.85413V27.4127H99.168V11.6285H106.615V6.85413H93.8408ZM123.615 19.3586V27.4127H128.941V6.85413H123.615V14.5265H115.704V6.85413H110.378V27.4127H115.704V19.3586H123.615ZM162.426 27.4127V11.6285H156.203V6.85413H174.003V11.6285H167.752V27.4127H162.426ZM147.131 15.6959V27.4127H152.46V6.85414H147.86L139.526 18.4475V6.85414H134.198V27.4127H138.653L147.131 15.6959ZM0.994141 10.5181C0.994141 7.89826 2.0129 5.43115 3.86563 3.57001C5.71674 1.70962 8.17084 0.684814 10.7749 0.684814H33.3602V5.6818H10.7749C9.49839 5.6818 8.29241 6.1868 7.37901 7.10306C6.46724 8.02162 5.96312 9.2349 5.96312 10.5181L5.93476 18.9055C5.70458 21.1333 4.03421 22.9301 1.8735 23.2615L0.994141 23.3972V10.5181ZM0.994141 33.5787V28.5813H23.5795C24.856 28.5813 26.0619 28.0764 26.9721 27.1578C27.8879 26.2425 28.3896 25.0304 28.3896 23.7451L28.3937 15.7848C28.3937 13.414 30.1508 11.3582 32.4817 11.0005L33.3602 10.8663V23.7451C33.3602 26.3651 32.3414 28.8313 30.4879 30.6923C28.6376 32.554 26.1859 33.5787 23.5795 33.5787H0.994141ZM20.1599 23.3972V17.0298L17.1774 20.5141L14.194 17.0298V23.3972H10.2422V10.8663H13.9857L17.1774 14.895L20.3682 10.8663H24.1134V23.3972H20.1599Z" fill="white"/>
</svg>
